<svg id="Layer_1" data-name="Layer 1" xmlns="http://www.w3.org/2000/svg" viewBox="0 0 360 360">
    <defs>
        <style>.cls-1{fill:blue;}.cls-2{fill:#8100fa;}.cls-3{fill:#6100fd;}</style>
    </defs>
    <rect width="360" height="360" rx="18.41"/>
    <path class="cls-1"
          d="M262.24,74c11.09-12.54-44.71-33.76-51.69-35.53-31.06-7.88-67-1.34-91,20.47-17.75,16.11-26,38.37-27.19,60.19s4.7,43.19,15.26,57.55a47,47,0,0,0,14.28,13.17c2.14,1.23,5.78-1,4.38-3-8.71-12.65-13.18-47.56,6.5-74.25C146,94.7,168.22,84.45,190.56,89c11.13,2.27,25.08,7.54,41.47,18.5a5.55,5.55,0,0,0,4.49.76,5.35,5.35,0,0,0,2.61-1.6l10.65-15Z"/>
    <path class="cls-2"
          d="M97.76,286c-11.09,12.54,44.71,33.76,51.69,35.53,31.06,7.88,67,1.34,91-20.47,17.75-16.11,26-38.37,27.19-60.19s-4.7-43.19-15.26-57.55a47,47,0,0,0-14.28-13.17c-2.14-1.23-5.78,1-4.38,3,8.71,12.65,13.18,47.56-6.5,74.25C214,265.3,191.78,275.55,169.44,271c-11.13-2.27-25.08-7.54-41.47-18.5a5.55,5.55,0,0,0-4.49-.76,5.35,5.35,0,0,0-2.61,1.6l-10.65,15Z"/>
    <path class="cls-3"
          d="M162.77,208.27c9.71,7.72,21.18,12.89,28.74,22.86,3.69,4.85,5,12.25,6.17,17.44.58,2.54,3.35,2.79,5.72,1.67,2.74-1.28,6.51-4.39,10.26-8.94,7.62-9.23,15.21-24.35,14.15-42.05-1.22-20.38-13.73-37.93-29.39-50.41-7.75-6.18-17.81-10.66-24.46-18-5.49-6.08-7.83-14.48-9.79-21a3.52,3.52,0,0,0-5.67-1.89c-9.56,4.89-21.17,20.76-24.83,39.18C128.8,171.58,144.25,193.56,162.77,208.27Z"/>
</svg>